<?xml version="1.0" encoding="utf-8"?>
<!-- Generator: Adobe Illustrator 24.2.3, SVG Export Plug-In . SVG Version: 6.00 Build 0)  -->
<!DOCTYPE svg PUBLIC "-//W3C//DTD SVG 1.1//EN" "http://www.w3.org/Graphics/SVG/1.1/DTD/svg11.dtd" [
	<!ENTITY ns_extend "http://ns.adobe.com/Extensibility/1.0/">
	<!ENTITY ns_ai "http://ns.adobe.com/AdobeIllustrator/10.0/">
	<!ENTITY ns_graphs "http://ns.adobe.com/Graphs/1.0/">
	<!ENTITY ns_vars "http://ns.adobe.com/Variables/1.0/">
	<!ENTITY ns_imrep "http://ns.adobe.com/ImageReplacement/1.0/">
	<!ENTITY ns_sfw "http://ns.adobe.com/SaveForWeb/1.0/">
	<!ENTITY ns_custom "http://ns.adobe.com/GenericCustomNamespace/1.0/">
	<!ENTITY ns_adobe_xpath "http://ns.adobe.com/XPath/1.0/">
]>
<svg version="1.1" id="Layer_1" xmlns:x="&ns_extend;" xmlns:i="&ns_ai;" xmlns:graph="&ns_graphs;"
	 xmlns="http://www.w3.org/2000/svg" xmlns:xlink="http://www.w3.org/1999/xlink" x="0px" y="0px" width="64px" height="64px"
	 viewBox="0 0 64 64" style="enable-background:new 0 0 64 64;" xml:space="preserve">
<style type="text/css">
	.st0{fill:none;stroke:#435D69;stroke-linecap:round;stroke-linejoin:round;stroke-miterlimit:10;}
	.st1{fill:none;stroke:#0083C1;stroke-linecap:round;stroke-linejoin:round;stroke-miterlimit:10;}
</style>
<metadata>
	<sfw  xmlns="&ns_sfw;">
		<slices></slices>
		<sliceSourceBounds  bottomLeftOrigin="true" height="62.4" width="35" x="14.1" y="-63.3"></sliceSourceBounds>
	</sfw>
</metadata>
<g>
	<g>
		<g>
			<polygon class="st0" points="14.6,21 48.6,1.4 48.6,43.2 14.6,62.8 			"/>
			<line class="st0" x1="19.3" y1="23.2" x2="32.9" y2="15.3"/>
			<line class="st0" x1="26.1" y1="24.3" x2="43.9" y2="14"/>
			<line class="st0" x1="26.1" y1="32.8" x2="29.9" y2="30.5"/>
			<line class="st0" x1="33.3" y1="28.6" x2="43.9" y2="22.5"/>
			<line class="st0" x1="37.2" y1="29.8" x2="26.1" y2="36.1"/>
			<line class="st0" x1="39" y1="20.2" x2="26.1" y2="27.7"/>
			<polygon class="st1" points="19.3,28.2 22.7,26.2 22.7,29.6 19.3,31.6 			"/>
			<polygon class="st1" points="19.3,36.7 22.7,34.7 22.7,38.1 19.3,40.1 			"/>
		</g>
		<g>
			<g>
				<line class="st1" x1="42.2" y1="33.7" x2="42.2" y2="37.8"/>
				<line class="st1" x1="40.1" y1="36.9" x2="44.2" y2="34.5"/>
			</g>
		</g>
		<g>
			<path class="st1" d="M30.1,49.3l3.6-11.6c0.1-0.2,0.3-0.4,0.4-0.2l3.6,7.5"/>
			<line class="st1" x1="31.2" y1="46.3" x2="36.6" y2="43.1"/>
		</g>
	</g>
	<line class="st0" x1="44.1" y1="8.8" x2="44.1" y2="8.8"/>
	<line class="st0" x1="40.7" y1="10.8" x2="40.7" y2="10.8"/>
</g>
</svg>
