<?xml version="1.0" encoding="utf-8"?>
<!-- Generator: Adobe Illustrator 24.2.3, SVG Export Plug-In . SVG Version: 6.00 Build 0)  -->
<!DOCTYPE svg PUBLIC "-//W3C//DTD SVG 1.1//EN" "http://www.w3.org/Graphics/SVG/1.1/DTD/svg11.dtd" [
	<!ENTITY ns_extend "http://ns.adobe.com/Extensibility/1.0/">
	<!ENTITY ns_ai "http://ns.adobe.com/AdobeIllustrator/10.0/">
	<!ENTITY ns_graphs "http://ns.adobe.com/Graphs/1.0/">
	<!ENTITY ns_vars "http://ns.adobe.com/Variables/1.0/">
	<!ENTITY ns_imrep "http://ns.adobe.com/ImageReplacement/1.0/">
	<!ENTITY ns_sfw "http://ns.adobe.com/SaveForWeb/1.0/">
	<!ENTITY ns_custom "http://ns.adobe.com/GenericCustomNamespace/1.0/">
	<!ENTITY ns_adobe_xpath "http://ns.adobe.com/XPath/1.0/">
]>
<svg version="1.1" id="Layer_1" xmlns:x="&ns_extend;" xmlns:i="&ns_ai;" xmlns:graph="&ns_graphs;"
	 xmlns="http://www.w3.org/2000/svg" xmlns:xlink="http://www.w3.org/1999/xlink" x="0px" y="0px" width="64px" height="64px"
	 viewBox="0 0 64 64" style="enable-background:new 0 0 64 64;" xml:space="preserve">
<style type="text/css">
	.st0{fill:none;stroke:#435D69;stroke-linecap:round;stroke-linejoin:round;stroke-miterlimit:22.9256;}
	.st1{fill:none;stroke:#435D69;stroke-linecap:round;stroke-linejoin:round;stroke-miterlimit:2.6131;}
	.st2{fill:none;stroke:#0083C1;stroke-linecap:round;stroke-linejoin:round;stroke-miterlimit:22.9256;}
</style>
<metadata>
	<sfw  xmlns="&ns_sfw;">
		<slices></slices>
		<sliceSourceBounds  bottomLeftOrigin="true" height="63.4" width="37.8" x="13.1" y="-63.7"></sliceSourceBounds>
	</sfw>
</metadata>
<g>
	<path class="st0" d="M44,3.7l4.4-2.6c1.1-0.6,1.9-0.2,1.9,0.8v38.9c0,1.1-0.9,2.4-1.9,3.1l-32.9,19c-1.1,0.6-1.9,0.2-1.9-0.8V23.2
		c0-1.1,0.9-2.4,1.9-3.1l4.5-2.6"/>
	<polyline class="st0" points="43.9,7.6 46.5,6.1 46.5,41.1 17.5,57.9 17.5,22.9 20.1,21.3 	"/>
	<line class="st1" x1="32" y1="9.7" x2="32" y2="9.6"/>
	<line class="st2" x1="34" y1="22.2" x2="22" y2="29.1"/>
	<line class="st0" x1="34" y1="26" x2="22" y2="33"/>
	<path class="st2" d="M40.1,22c0-1,0.1-1.2,1.4-3.3c0.3-0.5,0.5-1.1,0.5-1.6c0-1.1-0.9-1.4-1.9-0.8c-1.1,0.6-1.9,2-1.9,3.1"/>
	<line class="st2" x1="40.1" y1="24.9" x2="40.1" y2="24.9"/>
	<line class="st0" x1="34" y1="35.7" x2="22" y2="42.6"/>
	<line class="st2" x1="34" y1="39.6" x2="22" y2="46.5"/>
	<path class="st2" d="M40.1,35.6c0-1,0.1-1.2,1.4-3.3c0.3-0.5,0.5-1.1,0.5-1.6c0-1.1-0.9-1.4-1.9-0.8c-1.1,0.6-1.9,2-1.9,3.1"/>
	<line class="st2" x1="40.1" y1="38.4" x2="40.1" y2="38.4"/>
	<path class="st2" d="M21.4,15.8l6.8-3.9c0-2.1,1.7-4.9,3.9-6.1c2.1-1.2,3.9-0.5,3.9,1.6l6.8-3.9c0.5-0.3,1-0.1,1,0.4v3.9
		c0,0.5-0.4,1.2-1,1.5L21.4,21.6c-0.5,0.3-1,0.1-1-0.4v-3.9C20.4,16.8,20.8,16.1,21.4,15.8z"/>
</g>
</svg>
